<svg xmlns="http://www.w3.org/2000/svg" width="105.77" height="26.426" viewBox="0 0 105.77 26.426">
  <g id="Group_9" data-name="Group 9" transform="translate(-51.885 -253.014)">
    <path id="Path_10" data-name="Path 10" d="M51.885,279.448H66.84l13.233-12.607a11.562,11.562,0,0,1,8.188-3.646h40.67l10.179-10.063H88.4s-8.745-.37-14.019,4.442S51.885,279.448,51.885,279.448Z" transform="translate(0 -0.09)" fill="#e6101a"/>
    <path id="Path_11" data-name="Path 11" d="M141.344,325.884h13.845l3.855-3.8a7.4,7.4,0,0,1,4.79-1.883h26.2l9.257-9.227H162.031s-4.954-.21-7.942,2.516S141.344,325.884,141.344,325.884Z" transform="translate(-71.813 -46.525)" fill="#e6101a"/>
    <path id="Path_12" data-name="Path 12" d="M388.35,279.336H371.971l26.255-26.322H414.6Z" transform="translate(-256.949)" fill="#e6101a"/>
    <g id="Group_8" data-name="Group 8" transform="translate(138.153 276.241)">
      <path id="Path_13" data-name="Path 13" d="M490.234,373.969v-2.658h-.994v-.541H491.9v.541h-.992v2.658Z" transform="translate(-489.24 -370.77)" fill="#e6101a"/>
      <path id="Path_14" data-name="Path 14" d="M504.9,373.969v-3.2h1.012l.608,2.182.6-2.182h1.015v3.2h-.628v-2.518l-.665,2.518h-.651l-.663-2.518v2.518Z" transform="translate(-501.811 -370.77)" fill="#e6101a"/>
    </g>
  </g>
</svg>
